<svg width="24" height="24" viewBox="0 0 24 24" fill="none" xmlns="http://www.w3.org/2000/svg">
<path d="M12 18.25C8.54822 18.25 5.75 15.4518 5.75 12C5.75 11.8317 5.75665 11.6649 5.76971 11.5M12 18.25C15.4518 18.25 18.25 15.4518 18.25 12C18.25 11.8317 18.2433 11.6649 18.2303 11.5M12 18.25C13.3807 18.25 14.5 15.4518 14.5 12C14.5 8.54822 13.3807 5.75 12 5.75M12 18.25C10.6193 18.25 9.5 15.4518 9.5 12C9.5 8.54822 10.6193 5.75 12 5.75M12 5.75C8.71652 5.75 6.02443 8.282 5.76971 11.5M12 5.75C15.2835 5.75 17.9756 8.282 18.2303 11.5M5.76971 11.5C5.76971 11.5 8 12.5 12 12.5C16 12.5 18.2303 11.5 18.2303 11.5" stroke="#0A1E12" stroke-width="1.5" stroke-linecap="round" stroke-linejoin="round"/>
</svg>
